# xmcd CD database file
#
# Track frame offsets:
#	150
#	11039
#	18889
#	28070
#	36076
#	46220
#	54895
#	63000
#	74806
#	83536
#	94278
#	105136
#	115741
#	126827
#
# Disc length: 1891 seconds
#
# Revision: 0
# Processed by: cddbd v1.5.2PL0 Copyright (c) Steve Scherf et al.
# Submitted via: CDex 1.51
#
DISCID=a707610e
DTITLE=Roger Miller - Reader's Digest Americana
DYEAR=2003
DGENRE=Country
TTITLE0=King Of The Road
TTITLE1=Dang Me
TTITLE2=Chug A Lug
TTITLE3=Do-Wack-A-Do
TTITLE4=Engine, Engine #9
TTITLE5=England Swings
TTITLE6=In The Summertime (You Don't Want My Love)
TTITLE7=Walkin' In The Sunshine
TTITLE8=You Can't Roller Skate In A Buffalo Herd
TTITLE9=Don't We All Have The Right
TTITLE10=Burning Bridges
TTITLE11=When Two Worlds Collide
TTITLE12=Husbands And Wives
TTITLE13=Me And Bobby McGee
EXTD=YEAR: 2003
EXTT0=
EXTT1=
EXTT2=
EXTT3=
EXTT4=
EXTT5=
EXTT6=
EXTT7=
EXTT8=
EXTT9=
EXTT10=
EXTT11=
EXTT12=
EXTT13=
PLAYORDER=
